<svg width="1921" height="89" viewBox="0 0 1921 89" fill="none" xmlns="http://www.w3.org/2000/svg">
<g filter="url(#filter0_ddd_1_470)">
<rect x="1761.46" y="21.0055" width="138.036" height="36.0094" rx="10" fill="white"/>
</g>
<mask id="mask0_1_470" style="mask-type:alpha" maskUnits="userSpaceOnUse" x="1770" y="29" width="13" height="21">
<g clip-path="url(#clip0_1_470)">
<g clip-path="url(#clip1_1_470)">
<path d="M1770.96 30.5079H1782.96V36.5095H1776.96L1770.96 30.5079ZM1770.96 36.5095H1776.96L1782.96 42.5111H1776.96V48.5126L1770.96 42.5111V36.5095Z" fill="black"/>
</g>
</g>
</mask>
<g mask="url(#mask0_1_470)">
<rect x="1770.96" y="29.0076" width="12.0031" height="20.0052" fill="black"/>
</g>
<mask id="mask1_1_470" style="mask-type:alpha" maskUnits="userSpaceOnUse" x="1792" y="34" width="98" height="11">
<g clip-path="url(#clip2_1_470)">
<g clip-path="url(#clip3_1_470)">
<path d="M1884.73 43.5425V36.5777H1886.31V37.74H1886.36C1886.49 37.3369 1886.71 37.0288 1887.01 36.8128C1887.32 36.5927 1887.7 36.4797 1888.08 36.4887C1888.18 36.4887 1888.28 36.4927 1888.38 36.5017C1888.49 36.5097 1888.58 36.5187 1888.65 36.5267V38.0131C1888.54 37.9901 1888.44 37.9751 1888.33 37.9691C1888.18 37.9521 1888.03 37.9441 1887.88 37.9441C1887.59 37.9441 1887.33 38.0071 1887.1 38.1341C1886.87 38.2571 1886.69 38.4342 1886.56 38.6673C1886.42 38.9203 1886.36 39.2054 1886.36 39.4925V43.5435L1884.73 43.5425ZM1880.28 43.6886C1879.58 43.6886 1878.97 43.5405 1878.47 43.2444C1877.96 42.9444 1877.57 42.5223 1877.29 41.9811C1877.02 41.439 1876.89 40.8088 1876.89 40.0886C1876.89 39.3784 1877.02 38.7483 1877.29 38.2031C1877.55 37.677 1877.95 37.2349 1878.45 36.9268C1878.94 36.6177 1879.52 36.4637 1880.18 36.4637C1880.63 36.4637 1881.05 36.5397 1881.44 36.6917C1881.83 36.8398 1882.18 37.0648 1882.47 37.3649C1882.77 37.661 1883 38.0321 1883.16 38.4752C1883.33 38.9153 1883.42 39.4304 1883.42 40.0186V40.5087H1877.62V39.3894H1882.6L1881.85 39.7065C1881.86 39.3544 1881.79 39.0033 1881.65 38.6783C1881.54 38.4012 1881.34 38.1641 1881.09 37.9981C1880.85 37.834 1880.55 37.751 1880.19 37.751C1879.84 37.751 1879.54 37.834 1879.29 37.9991C1879.03 38.1641 1878.84 38.3892 1878.7 38.6723C1878.56 38.9733 1878.5 39.3004 1878.5 39.6305V40.3807C1878.5 40.8078 1878.58 41.1739 1878.72 41.478C1878.87 41.7781 1879.08 42.0091 1879.35 42.1702C1879.62 42.3272 1879.94 42.4052 1880.3 42.4052C1880.55 42.4052 1880.78 42.3692 1880.97 42.2972C1881.17 42.2282 1881.34 42.1171 1881.49 41.9731C1881.63 41.8331 1881.74 41.667 1881.81 41.472L1883.32 41.682C1883.22 42.0741 1883.02 42.4342 1882.75 42.7293C1882.47 43.0294 1882.11 43.2644 1881.69 43.4335C1881.27 43.6035 1880.8 43.6876 1880.28 43.6876V43.6886ZM1865.63 43.5425V36.5777H1867.18L1867.22 38.2031H1867.1C1867.21 37.801 1867.37 37.4729 1867.58 37.2189C1867.78 36.9718 1868.04 36.7758 1868.33 36.6477C1868.62 36.5207 1868.91 36.4577 1869.23 36.4577C1869.74 36.4577 1870.16 36.6137 1870.5 36.9268C1870.84 37.2399 1871.06 37.682 1871.17 38.2541H1870.97C1871.05 37.892 1871.22 37.555 1871.46 37.2699C1871.68 37.0078 1871.96 36.8008 1872.28 36.6667C1872.6 36.5257 1872.96 36.4547 1873.31 36.4567C1873.73 36.4567 1874.11 36.5497 1874.45 36.7367C1874.8 36.9188 1875.07 37.1889 1875.26 37.549C1875.46 37.9091 1875.56 38.3512 1875.56 38.8763V43.5425H1873.93V39.1234C1873.93 38.6833 1873.81 38.3622 1873.56 38.1581C1873.32 37.9501 1873.01 37.84 1872.69 37.848C1872.42 37.848 1872.19 37.9051 1872 38.0181C1871.8 38.1311 1871.65 38.2962 1871.55 38.4952C1871.44 38.7133 1871.38 38.9553 1871.39 39.1994V43.5425H1869.8V39.0473C1869.8 38.6833 1869.68 38.3932 1869.46 38.1771C1869.23 37.9571 1868.94 37.847 1868.59 37.847C1868.35 37.847 1868.13 37.9051 1867.93 38.0191C1867.72 38.1341 1867.56 38.3032 1867.44 38.5082C1867.33 38.7233 1867.27 38.9903 1867.27 39.3084V43.5425H1865.63ZM1860.28 43.6766C1859.71 43.6766 1859.2 43.5325 1858.76 43.2444C1858.33 42.9524 1857.98 42.5373 1857.73 42.0001C1857.48 41.462 1857.35 40.8198 1857.35 40.0696C1857.35 39.3124 1857.48 38.6642 1857.74 38.1271C1857.99 37.589 1858.34 37.1789 1858.78 36.8948C1859.23 36.6107 1859.75 36.4627 1860.28 36.4697C1860.65 36.4697 1860.97 36.5307 1861.23 36.6537C1861.5 36.7728 1861.72 36.9238 1861.89 37.1108C1862.07 37.2929 1862.2 37.4789 1862.31 37.67H1862.36V36.5777H1863.98V43.5425H1862.36V42.4572H1862.31C1862.2 42.6693 1862.05 42.8633 1861.89 43.0344C1861.71 43.2214 1861.49 43.3755 1861.22 43.4985C1860.92 43.6245 1860.6 43.6846 1860.28 43.6766ZM1860.71 42.3242C1861.06 42.3242 1861.37 42.2302 1861.62 42.0441C1861.89 41.8401 1862.09 41.565 1862.2 41.2509C1862.33 40.9078 1862.4 40.5117 1862.4 40.0636C1862.4 39.6105 1862.33 39.2164 1862.2 38.8833C1862.09 38.5712 1861.89 38.2992 1861.62 38.1011C1861.37 37.9151 1861.07 37.822 1860.71 37.822C1860.35 37.822 1860.04 37.9151 1859.79 38.1021C1859.54 38.2882 1859.35 38.5482 1859.22 38.8823C1859.09 39.2164 1859.02 39.6105 1859.02 40.0626C1859.02 40.5127 1859.09 40.9058 1859.22 41.2439C1859.35 41.583 1859.54 41.8471 1859.79 42.0381C1860.05 42.2282 1860.35 42.3242 1860.71 42.3242ZM1852.89 43.5425V36.5777H1854.47V37.74H1854.53C1854.66 37.3369 1854.87 37.0288 1855.17 36.8128C1855.47 36.5967 1855.83 36.4887 1856.24 36.4887C1856.34 36.4887 1856.44 36.4927 1856.55 36.5017C1856.65 36.5097 1856.74 36.5187 1856.82 36.5267V38.0131C1856.71 37.9901 1856.6 37.9751 1856.49 37.9691C1856.34 37.9521 1856.2 37.9441 1856.05 37.9441C1855.76 37.9441 1855.5 38.0071 1855.27 38.1341C1855.04 38.2571 1854.86 38.4342 1854.73 38.6673C1854.59 38.9203 1854.52 39.2054 1854.53 39.4925V43.5435L1852.89 43.5425ZM1845.63 43.5425V34.0821H1851.79V35.5174H1847.32V38.2731H1851.39V39.6885H1847.32V43.5425H1845.63ZM1836.24 39.5045V43.5425H1834.61V36.5777H1836.17L1836.19 38.3112H1836C1836.2 37.706 1836.5 37.2489 1836.88 36.9398C1837.27 36.6267 1837.76 36.4697 1838.34 36.4697C1838.82 36.4697 1839.24 36.5737 1839.6 36.7808C1839.97 36.9878 1840.25 37.2909 1840.45 37.689C1840.65 38.0821 1840.75 38.5652 1840.75 39.1364V43.5425H1839.12V39.3904C1839.12 38.9073 1839 38.5352 1838.75 38.2731C1838.51 38.0061 1838.17 37.873 1837.74 37.873C1837.45 37.873 1837.2 37.9361 1836.97 38.0631C1836.74 38.1891 1836.55 38.3792 1836.43 38.6092C1836.31 38.8503 1836.24 39.1494 1836.24 39.5045ZM1831.33 43.5425V36.5777H1832.97V43.5425H1831.33ZM1832.15 35.5744C1831.9 35.5804 1831.65 35.4874 1831.47 35.3144C1831.29 35.1483 1831.18 34.9123 1831.19 34.6662C1831.18 34.4221 1831.29 34.1891 1831.47 34.026C1831.65 33.85 1831.89 33.754 1832.15 33.759C1832.41 33.759 1832.64 33.847 1832.83 34.025C1833.02 34.1991 1833.11 34.4121 1833.11 34.6662C1833.11 34.9203 1833.02 35.1363 1832.83 35.3144C1832.64 35.4874 1832.4 35.5804 1832.15 35.5744ZM1823.72 43.6886C1823.02 43.6886 1822.41 43.5405 1821.91 43.2444C1821.4 42.9464 1820.99 42.5073 1820.73 41.9811C1820.46 41.439 1820.33 40.8088 1820.33 40.0886C1820.33 39.3784 1820.46 38.7483 1820.73 38.2031C1820.99 37.677 1821.39 37.2349 1821.89 36.9268C1822.38 36.6177 1822.96 36.4637 1823.62 36.4637C1824.07 36.4637 1824.49 36.5397 1824.88 36.6917C1825.27 36.8388 1825.62 37.0678 1825.91 37.3649C1826.21 37.661 1826.44 38.0321 1826.6 38.4752C1826.77 38.9153 1826.86 39.4304 1826.86 40.0186V40.5087H1821.06V39.3894H1826.04L1825.29 39.7065C1825.29 39.3134 1825.23 38.9703 1825.1 38.6783C1824.98 38.4012 1824.79 38.1641 1824.54 37.9981C1824.29 37.834 1823.99 37.751 1823.63 37.751C1823.31 37.743 1823 37.829 1822.73 37.9991C1822.47 38.1641 1822.28 38.3892 1822.14 38.6723C1822.01 38.9733 1821.94 39.3004 1821.95 39.6305V40.3807C1821.95 40.8078 1822.02 41.1739 1822.16 41.478C1822.31 41.7781 1822.52 42.0091 1822.79 42.1702C1823.06 42.3272 1823.38 42.4052 1823.74 42.4052C1823.99 42.4052 1824.22 42.3692 1824.42 42.2972C1824.61 42.2282 1824.78 42.1171 1824.93 41.9731C1825.07 41.8331 1825.18 41.667 1825.25 41.472L1826.76 41.682C1826.66 42.0741 1826.46 42.4342 1826.19 42.7293C1825.91 43.0294 1825.56 43.2644 1825.13 43.4335C1824.68 43.6085 1824.2 43.6956 1823.72 43.6876L1823.72 43.6886ZM1815.28 43.6766C1814.75 43.6856 1814.22 43.5355 1813.77 43.2444C1813.33 42.9524 1812.99 42.5373 1812.74 42.0001C1812.49 41.462 1812.36 40.8198 1812.36 40.0696C1812.36 39.3124 1812.49 38.6642 1812.74 38.1271C1813 37.589 1813.35 37.1789 1813.79 36.8948C1814.23 36.6117 1814.72 36.4697 1815.28 36.4697C1815.65 36.4697 1815.97 36.5307 1816.24 36.6537C1816.5 36.7728 1816.72 36.9238 1816.89 37.1108C1817.06 37.2929 1817.2 37.4809 1817.3 37.676H1817.35V34.0821H1818.99V43.5425H1817.39V42.4502H1817.32C1817.21 42.6653 1817.06 42.8623 1816.9 43.0344C1816.71 43.2294 1816.48 43.3875 1816.24 43.4985C1815.97 43.6165 1815.66 43.6766 1815.28 43.6766ZM1815.71 42.3242C1816.06 42.3242 1816.37 42.2302 1816.62 42.0441C1816.89 41.8401 1817.09 41.565 1817.2 41.2509C1817.34 40.9078 1817.41 40.5117 1817.41 40.0636C1817.41 39.6105 1817.34 39.2164 1817.2 38.8833C1817.09 38.5712 1816.89 38.2992 1816.62 38.1011C1816.36 37.9111 1816.04 37.813 1815.71 37.822C1815.38 37.813 1815.06 37.9121 1814.8 38.1021C1814.55 38.2882 1814.36 38.5502 1814.22 38.8883C1814.09 39.2654 1814.03 39.6635 1814.03 40.0636C1814.03 40.5117 1814.1 40.9058 1814.23 41.2439C1814.36 41.583 1814.55 41.8471 1814.8 42.0381C1815.05 42.2282 1815.35 42.3242 1815.71 42.3242ZM1807.32 43.6766C1806.79 43.6856 1806.26 43.5355 1805.81 43.2444C1805.37 42.9524 1805.03 42.5373 1804.78 42.0001C1804.53 41.462 1804.4 40.8198 1804.4 40.0696C1804.4 39.3124 1804.53 38.6642 1804.78 38.1271C1805.04 37.589 1805.39 37.1789 1805.83 36.8948C1806.27 36.6117 1806.77 36.4697 1807.32 36.4697C1807.7 36.4697 1808.02 36.5307 1808.28 36.6537C1808.55 36.7728 1808.77 36.9238 1808.94 37.1108C1809.11 37.2929 1809.25 37.4789 1809.35 37.67H1809.41V36.5777H1811.03V43.5425H1809.41V42.4572H1809.35C1809.24 42.6693 1809.1 42.8633 1808.93 43.0344C1808.76 43.2214 1808.53 43.3755 1808.27 43.4985C1807.97 43.6245 1807.65 43.6846 1807.32 43.6766ZM1807.75 42.3242C1808.11 42.3242 1808.41 42.2302 1808.67 42.0441C1808.92 41.8541 1809.11 41.589 1809.25 41.2509C1809.38 40.9078 1809.45 40.5117 1809.45 40.0636C1809.45 39.6105 1809.38 39.2164 1809.25 38.8833C1809.13 38.5712 1808.93 38.2992 1808.67 38.1011C1808.42 37.9151 1808.11 37.822 1807.75 37.822C1807.39 37.822 1807.09 37.9151 1806.84 38.1021C1806.58 38.3032 1806.38 38.5732 1806.27 38.8823C1806.14 39.2164 1806.07 39.6105 1806.07 40.0626C1806.07 40.5127 1806.14 40.9058 1806.27 41.2439C1806.4 41.583 1806.59 41.8471 1806.84 42.0381C1807.09 42.2282 1807.4 42.3242 1807.75 42.3242ZM1792.97 43.5425V34.0821H1795.47L1797.29 38.9963C1797.35 39.1784 1797.42 39.4064 1797.5 39.6825C1797.58 39.9576 1797.66 40.2537 1797.75 40.5717C1797.83 40.8848 1797.91 41.1889 1797.98 41.486C1798.06 41.7781 1798.12 42.0341 1798.17 42.2542H1797.81C1798.01 41.394 1798.24 40.5387 1798.48 39.6885C1798.56 39.4084 1798.63 39.1784 1798.69 38.9963L1800.48 34.0821H1802.99V43.5425H1801.32V38.7493C1801.32 38.2031 1801.33 37.657 1801.34 37.1108L1801.37 36.1396C1801.37 35.8135 1801.38 35.5024 1801.39 35.2063H1801.53C1801.44 35.5324 1801.35 35.8665 1801.25 36.2096L1800.95 37.2059C1800.85 37.524 1800.76 37.816 1800.67 38.0821C1800.6 38.3062 1800.53 38.5282 1800.45 38.7493L1798.69 43.5425H1797.27L1795.48 38.7493L1795.26 38.0891C1795.17 37.8 1795.07 37.5099 1794.99 37.2189L1794.68 36.2286C1794.58 35.8885 1794.48 35.5474 1794.38 35.2063H1794.56C1794.56 35.4894 1794.57 35.7945 1794.58 36.1206C1794.59 36.4417 1794.59 36.7658 1794.6 37.0918C1794.61 37.4139 1794.61 37.718 1794.62 38.0061C1794.63 38.2942 1794.63 38.5412 1794.63 38.7493V43.5425H1792.97Z" fill="black"/>
</g>
</g>
</mask>
<g mask="url(#mask1_1_470)">
<rect x="1792.97" y="34.0089" width="97.0253" height="10.0026" fill="black"/>
</g>
<mask id="mask2_1_470" style="mask-type:alpha" maskUnits="userSpaceOnUse" x="1760" y="20" width="141" height="39">
<rect x="1760.46" y="20.0052" width="140.036" height="38.0099" fill="url(#paint0_linear_1_470)"/>
</mask>
<g mask="url(#mask2_1_470)">
<g opacity="0.06" filter="url(#filter1_i_1_470)">
<rect x="1760.46" y="20.0052" width="140.036" height="38.0099" rx="11" fill="white" fill-opacity="0.01"/>
</g>
</g>
<g opacity="0.04" filter="url(#filter2_i_1_470)">
<rect x="1760.46" y="20.0052" width="140.036" height="38.0099" rx="11" fill="white" fill-opacity="0.01"/>
</g>
<defs>
<filter id="filter0_ddd_1_470" x="1739.95" y="9.50247" width="181.047" height="79.0206" filterUnits="userSpaceOnUse" color-interpolation-filters="sRGB">
<feFlood flood-opacity="0" result="BackgroundImageFix"/>
<feColorMatrix in="SourceAlpha" type="matrix" values="0 0 0 0 0 0 0 0 0 0 0 0 0 0 0 0 0 0 127 0" result="hardAlpha"/>
<feMorphology radius="4.5" operator="erode" in="SourceAlpha" result="effect1_dropShadow_1_470"/>
<feOffset dy="10"/>
<feGaussianBlur stdDeviation="13"/>
<feComposite in2="hardAlpha" operator="out"/>
<feColorMatrix type="matrix" values="0 0 0 0 0 0 0 0 0 0 0 0 0 0 0 0 0 0 0.02 0"/>
<feBlend mode="normal" in2="BackgroundImageFix" result="effect1_dropShadow_1_470"/>
<feColorMatrix in="SourceAlpha" type="matrix" values="0 0 0 0 0 0 0 0 0 0 0 0 0 0 0 0 0 0 127 0" result="hardAlpha"/>
<feMorphology radius="3" operator="erode" in="SourceAlpha" result="effect2_dropShadow_1_470"/>
<feOffset dy="2.28853"/>
<feGaussianBlur stdDeviation="2.9751"/>
<feComposite in2="hardAlpha" operator="out"/>
<feColorMatrix type="matrix" values="0 0 0 0 0 0 0 0 0 0 0 0 0 0 0 0 0 0 0.14 0"/>
<feBlend mode="normal" in2="effect1_dropShadow_1_470" result="effect2_dropShadow_1_470"/>
<feColorMatrix in="SourceAlpha" type="matrix" values="0 0 0 0 0 0 0 0 0 0 0 0 0 0 0 0 0 0 127 0" result="hardAlpha"/>
<feMorphology radius="1.5" operator="erode" in="SourceAlpha" result="effect3_dropShadow_1_470"/>
<feOffset dy="0.602187"/>
<feGaussianBlur stdDeviation="0.782845"/>
<feComposite in2="hardAlpha" operator="out"/>
<feColorMatrix type="matrix" values="0 0 0 0 0 0 0 0 0 0 0 0 0 0 0 0 0 0 0.17 0"/>
<feBlend mode="normal" in2="effect2_dropShadow_1_470" result="effect3_dropShadow_1_470"/>
<feBlend mode="normal" in="SourceGraphic" in2="effect3_dropShadow_1_470" result="shape"/>
</filter>
<filter id="filter1_i_1_470" x="1760.46" y="20.0052" width="140.036" height="38.0099" filterUnits="userSpaceOnUse" color-interpolation-filters="sRGB">
<feFlood flood-opacity="0" result="BackgroundImageFix"/>
<feBlend mode="normal" in="SourceGraphic" in2="BackgroundImageFix" result="shape"/>
<feColorMatrix in="SourceAlpha" type="matrix" values="0 0 0 0 0 0 0 0 0 0 0 0 0 0 0 0 0 0 127 0" result="hardAlpha"/>
<feMorphology radius="1" operator="erode" in="SourceAlpha" result="effect1_innerShadow_1_470"/>
<feOffset/>
<feComposite in2="hardAlpha" operator="arithmetic" k2="-1" k3="1"/>
<feColorMatrix type="matrix" values="0 0 0 0 0 0 0 0 0 0 0 0 0 0 0 0 0 0 1 0"/>
<feBlend mode="normal" in2="shape" result="effect1_innerShadow_1_470"/>
</filter>
<filter id="filter2_i_1_470" x="1760.46" y="20.0052" width="140.036" height="38.0099" filterUnits="userSpaceOnUse" color-interpolation-filters="sRGB">
<feFlood flood-opacity="0" result="BackgroundImageFix"/>
<feBlend mode="normal" in="SourceGraphic" in2="BackgroundImageFix" result="shape"/>
<feColorMatrix in="SourceAlpha" type="matrix" values="0 0 0 0 0 0 0 0 0 0 0 0 0 0 0 0 0 0 127 0" result="hardAlpha"/>
<feMorphology radius="1" operator="erode" in="SourceAlpha" result="effect1_innerShadow_1_470"/>
<feOffset/>
<feComposite in2="hardAlpha" operator="arithmetic" k2="-1" k3="1"/>
<feColorMatrix type="matrix" values="0 0 0 0 0 0 0 0 0 0 0 0 0 0 0 0 0 0 1 0"/>
<feBlend mode="normal" in2="shape" result="effect1_innerShadow_1_470"/>
</filter>
<linearGradient id="paint0_linear_1_470" x1="1830.48" y1="20.0052" x2="1830.48" y2="58.0151" gradientUnits="userSpaceOnUse">
<stop offset="0.65" stop-opacity="0"/>
<stop offset="1"/>
</linearGradient>
<clipPath id="clip0_1_470">
<rect width="12" height="20" fill="white" transform="translate(1770.96 29.0076) scale(1.00026)"/>
</clipPath>
<clipPath id="clip1_1_470">
<rect width="12" height="20" fill="white" transform="translate(1770.96 29.0076) scale(1.00026)"/>
</clipPath>
<clipPath id="clip2_1_470">
<rect width="97" height="10" fill="white" transform="translate(1792.97 34.0089) scale(1.00026)"/>
</clipPath>
<clipPath id="clip3_1_470">
<rect width="97" height="10" fill="white" transform="translate(1792.97 34.0089) scale(1.00026)"/>
</clipPath>
</defs>
</svg>
