<svg width="1000" height="400" viewBox="0 0 1000 400" fill="none" xmlns="http://www.w3.org/2000/svg">
<g clip-path="url(#clip0_1_212)">
<path d="M1.99609 0.39917C1.99609 299.8 500.998 150.1 500.998 399.601" stroke="#1E2021" stroke-width="2.99401" stroke-linecap="round" stroke-linejoin="round"/>
<path d="M1.99609 0.39917C1.99609 299.8 500.998 150.1 500.998 399.601" stroke="#0080FF" stroke-width="2.99401" stroke-linecap="round" stroke-linejoin="round" stroke-dasharray="59.88 199.6"/>
<path d="M500 400C500 150 200 300 200 0" stroke="#1E2021" stroke-width="3" stroke-linecap="round" stroke-linejoin="round"/>
<path d="M500 400C500 150 200 300 200 0" stroke="#0080FF" stroke-width="3" stroke-linecap="round" stroke-linejoin="round" stroke-dasharray="60 200"/>
<path d="M500 400C500 150 400 300 400 0" stroke="#1E2021" stroke-width="3" stroke-linecap="round" stroke-linejoin="round"/>
<path d="M500 400C500 150 400 300 400 0" stroke="#0080FF" stroke-width="3" stroke-linecap="round" stroke-linejoin="round" stroke-dasharray="60 200"/>
<path d="M500 400C500 150 600 300 600 0" stroke="#1E2021" stroke-width="3" stroke-linecap="round" stroke-linejoin="round"/>
<path d="M500 400C500 150 600 300 600 0" stroke="#0080FF" stroke-width="3" stroke-linecap="round" stroke-linejoin="round" stroke-dasharray="60 200"/>
<path d="M500 400C500 150 800 300 800 0" stroke="#1E2021" stroke-width="3" stroke-linecap="round" stroke-linejoin="round"/>
<path d="M500 400C500 150 800 300 800 0" stroke="#0080FF" stroke-width="3" stroke-linecap="round" stroke-linejoin="round" stroke-dasharray="60 200"/>
<path d="M499.002 399.601C499.002 150.1 998.004 299.8 998.004 0.39917" stroke="#1E2021" stroke-width="2.99401" stroke-linecap="round" stroke-linejoin="round"/>
<path d="M499.002 399.601C499.002 150.1 998.004 299.8 998.004 0.39917" stroke="#0080FF" stroke-width="2.99401" stroke-linecap="round" stroke-linejoin="round" stroke-dasharray="59.88 199.6"/>
</g>
<defs>
<clipPath id="clip0_1_212">
<rect width="1000" height="400" fill="white"/>
</clipPath>
</defs>
</svg>
